<svg version="1.1" xmlns="http://www.w3.org/2000/svg" xmlns:xlink="http://www.w3.org/1999/xlink" width="70" height="70" viewBox="0,0,70,70"><!-- Generated with https://ivantodorovich.github.io/odoo-icon --><defs><linearGradient x1="70" y1="0" x2="0" y2="70" gradientUnits="userSpaceOnUse" id="color-1"><stop offset="0" stop-color="#339af5"/><stop offset="1" stop-color="#0067c2"/></linearGradient></defs><g fill="none" fill-rule="nonzero" stroke="none" stroke-width="1" stroke-linecap="butt" stroke-linejoin="miter" stroke-miterlimit="10" stroke-dasharray="" stroke-dashoffset="0" font-family="none" font-weight="none" font-size="none" text-anchor="none" style="mix-blend-mode: normal"><path d="M3.5,70c-1.933,0 -3.5,-1.567 -3.5,-3.5v-63c0,-1.933 1.567,-3.5 3.5,-3.5h63c1.933,0 3.5,1.567 3.5,3.5v63c0,1.933 -1.567,3.5 -3.5,3.5z" id="box" fill="url(#color-1)"/><path d="M65,1h-61c-1.95033,0 -3.2667,0.63396 -3.9491,1.90189c0.28378,-1.64806 1.72001,-2.90189 3.4491,-2.90189h63c1.72965,0 3.16627,1.25466 3.44938,2.90352c-0.69803,-1.26902 -2.34782,-1.90352 -4.94938,-1.90352z" id="topBoxShadow" fill="#ffffff" opacity="0.383"/><path d="M4,69h61c2.66667,0 4.33333,-1 5,-3v0.5c0,1.933 -1.567,3.5 -3.5,3.5h-63c-1.933,0 -3.5,-1.567 -3.5,-3.5c0,-0.1611 0,-0.32777 0,-0.5c0.66667,2 2,3 4,3z" id="bottomBoxShadow" fill="#000000" opacity="0.383"/><path d="M45.75582,60.18705c-11.38681,5.81883 -28.58717,0.44651 -33.26645,-13.72787l-0.50959,0.16713c-0.47043,0.15588 -0.98843,0.0426 -1.35085,-0.29543c-0.36241,-0.33802 -0.51145,-0.8469 -0.38866,-1.32703l2.33649,-9.1937c0.10967,-0.45085 0.44234,-0.81427 0.88177,-0.96327c0.43942,-0.149 0.92452,-0.06287 1.2858,0.2283l7.35748,5.98219c0.38329,0.31342 0.56572,0.81055 0.47616,1.2975c-0.08957,0.48695 -0.43696,0.88662 -0.90669,1.04314l-1.0564,0.35456c1.1532,3.24236 8.82267,15.40323 23.36863,7.63701l0.25489,6.06464c0.04322,1.1002 0.60642,2.11449 1.51744,2.73283zM14.7038,32.72614c-1.19289,-0.28382 -3.3519,1.00077 -3.3519,1.00077c2.6598,-14.63799 17.25525,-22.48964 28.58982,-19.74098l0.34365,-1.44435c0.11473,-0.48198 0.48329,-0.86296 0.96121,-0.99359c0.47791,-0.13063 0.98903,0.0099 1.33297,0.36651l6.59479,6.81814c0.32197,0.33251 0.45201,0.80633 0.34487,1.25661c-0.10714,0.45028 -0.43663,0.81476 -0.87385,0.96664l-8.95803,3.11443c-0.46769,0.1635 -0.98733,0.05878 -1.3552,-0.27308c-0.36787,-0.33187 -0.52536,-0.83801 -0.41073,-1.32002l0.03356,-0.14106c-11.9703,-1.50666 -18.0508,8.42927 -18.33262,13.95796c-3.78447,-3.07782 -3.91564,-3.31639 -4.91854,-3.56797zM56.77449,54.19962l-8.43334,4.34092c-0.41113,0.21212 -0.90206,0.1999 -1.30213,-0.03242c-0.40007,-0.23231 -0.65402,-0.65264 -0.67357,-1.11485l-0.39254,-9.48984c-0.02123,-0.49499 0.2293,-0.96213 0.65339,-1.21829c0.42408,-0.25616 0.95414,-0.26053 1.38239,-0.01139l0.52952,0.30744c6.73978,-10.8548 -0.65647,-20.1058 -4.37011,-22.2012l5.17163,-1.79906c1.13029,-0.39006 1.98184,-1.33216 2.25607,-2.496c0.05275,-0.2417 0.07992,-0.48828 0.08107,-0.73567c11.24339,10.64914 8.93638,24.37634 4.27623,31.5429l0.88205,0.51444c0.43311,0.24665 0.6959,0.7111 0.6843,1.20938c-0.00989,0.50208 -0.29655,0.95754 -0.74496,1.18362zM44.68199,31.61801c0.435,0.435 0.435,1.01499 0,1.30499l-10.5944,10.30756c-0.38596,0.29212 -0.91904,0.29212 -1.30499,0l-5.35867,-5.21997c-0.435,-0.435 -0.435,-1.01499 0,-1.30499l1.44999,-1.30499c0.38596,-0.29212 0.91904,-0.29212 1.30499,0l3.33498,3.19629l8.70311,-8.41626c0.38596,-0.29212 0.91904,-0.29212 1.30499,0z" id="shadow" fill="#000000" opacity="0.3"/><path d="M18.13089,18.7595c5.6332,-5.6332 13.65762,-8.2561 20.66566,-7.01349l1.849,-1.849c0.16375,-0.16375 0.36957,-0.28574 0.60104,-0.34901c0.47791,-0.13063 0.98903,0.0099 1.33297,0.36651l6.59479,6.81814c0.32197,0.33251 0.45201,0.80633 0.34487,1.25661c-0.05901,0.248 -0.18547,0.46998 -0.36023,0.64474l-3.69531,3.69531l2.50436,-0.87119l3.70884,-3.70884c11.24339,10.64914 8.93638,24.37634 4.27623,31.5429l0.88205,0.51444c0.43311,0.24665 0.6959,0.7111 0.6843,1.20938c-0.00701,0.35568 -0.15291,0.68797 -0.39683,0.93189l-18.05211,18.05211h-35.57052c-1.933,0 -3.5,-1.567 -3.5,-3.5l0,-29.60961z" id="flatShadow" fill="#000000" opacity="0.324"/><path d="M45.75582,58.18705c-11.38681,5.81883 -28.58717,0.44651 -33.26645,-13.72787l-0.50959,0.16713c-0.47043,0.15588 -0.98843,0.0426 -1.35085,-0.29543c-0.36241,-0.33802 -0.51145,-0.8469 -0.38866,-1.32703l2.33649,-9.1937c0.10967,-0.45085 0.44234,-0.81427 0.88177,-0.96327c0.43942,-0.149 0.92452,-0.06287 1.2858,0.2283l7.35748,5.98219c0.38329,0.31342 0.56572,0.81055 0.47616,1.2975c-0.08957,0.48695 -0.43696,0.88662 -0.90669,1.04314l-1.0564,0.35456c1.1532,3.24236 8.82267,15.40323 23.36863,7.63701l0.25489,6.06464c0.04322,1.1002 0.60642,2.11449 1.51744,2.73283zM14.7038,30.72614c-1.19289,-0.28382 -3.3519,1.00077 -3.3519,1.00077c2.6598,-14.63799 17.25525,-22.48964 28.58982,-19.74098l0.34365,-1.44435c0.11473,-0.48198 0.48329,-0.86296 0.96121,-0.99359c0.47791,-0.13063 0.98903,0.0099 1.33297,0.36651l6.59479,6.81814c0.32197,0.33251 0.45201,0.80633 0.34487,1.25661c-0.10714,0.45028 -0.43663,0.81476 -0.87385,0.96664l-8.95803,3.11443c-0.46769,0.1635 -0.98733,0.05878 -1.3552,-0.27308c-0.36787,-0.33187 -0.52536,-0.83801 -0.41073,-1.32002l0.03356,-0.14106c-11.9703,-1.50666 -18.0508,8.42927 -18.33262,13.95796c-3.78447,-3.07782 -3.91564,-3.31639 -4.91854,-3.56797zM56.77449,52.19962l-8.43334,4.34092c-0.41113,0.21212 -0.90206,0.1999 -1.30213,-0.03242c-0.40007,-0.23231 -0.65402,-0.65264 -0.67357,-1.11485l-0.39254,-9.48984c-0.02123,-0.49499 0.2293,-0.96213 0.65339,-1.21829c0.42408,-0.25616 0.95414,-0.26053 1.38239,-0.01139l0.52952,0.30744c6.73978,-10.8548 -0.65647,-20.1058 -4.37011,-22.2012l5.17163,-1.79906c1.13029,-0.39006 1.98184,-1.33216 2.25607,-2.496c0.05275,-0.2417 0.07992,-0.48828 0.08107,-0.73567c11.24339,10.64914 8.93638,24.37634 4.27623,31.5429l0.88205,0.51444c0.43311,0.24665 0.6959,0.7111 0.6843,1.20938c-0.00989,0.50208 -0.29655,0.95754 -0.74496,1.18362zM44.68199,29.61801c0.435,0.435 0.435,1.01499 0,1.30499l-10.5944,10.30756c-0.38596,0.29212 -0.91904,0.29212 -1.30499,0l-5.35867,-5.21997c-0.435,-0.435 -0.435,-1.01499 0,-1.30499l1.44999,-1.30499c0.38596,-0.29212 0.91904,-0.29212 1.30499,0l3.33498,3.19629l8.70311,-8.41626c0.38596,-0.29212 0.91904,-0.29212 1.30499,0z" id="icon" fill="#ffffff"/></g></svg>