<?xml version="1.0" encoding="UTF-8"?><svg id="Layer_1" xmlns="http://www.w3.org/2000/svg" viewBox="0 0 141.43 140.62"><defs><style>.cls-1{fill:none;stroke:#1a6f66;stroke-linecap:round;stroke-linejoin:round;stroke-width:6.12px;}.cls-2{fill:#f86226;}.cls-2,.cls-3,.cls-4{stroke-width:0px;}.cls-3{fill:#fff;}.cls-4{fill:#fbb946;}</style></defs><rect class="cls-3" width="141.43" height="140.62" rx="4.99" ry="4.99"/><path class="cls-4" d="M101.13,47.99c-6.46-10.65-18.01-17.33-31.35-17.33-19.09,0-34.84,14.6-36.66,33.22h-6.93c-1.11,0-1.8,1.2-1.25,2.16l5.18,8.96,5.18,8.96c.55.96,1.94.96,2.49,0l5.18-8.96,5.18-8.96c.55-.96-.14-2.16-1.25-2.16h-6.52c1.79-14.64,14.29-26.02,29.41-26.02,11.99,0,22.34,7.15,27,17.41"/><path class="cls-2" d="M38.28,87.17c6.53,10.36,18.07,17.26,31.2,17.26,19.09,0,34.84-14.6,36.66-33.22h6.93c1.11,0,1.8-1.2,1.25-2.16l-5.18-8.96-5.18-8.96c-.55-.96-1.94-.96-2.49,0l-5.18,8.96-5.18,8.96c-.55.96.14,2.16,1.25,2.16h6.52c-1.79,14.64-14.29,26.02-29.41,26.02-11.86,0-22.11-7-26.85-17.08"/><polyline class="cls-1" points="56.68 69.36 66.62 78.85 83.8 53.08"/></svg>